Coordinates
version=1
nRows=5
nColumns=40
inDegrees=yes

Units are S.I. units (second, meters, Newtons, ...)
Angles are in degrees.

endheader
time	pelvis_tilt	pelvis_list	pelvis_rotation	pelvis_tx	pelvis_ty	pelvis_tz	hip_flexion_r	hip_adduction_r	hip_rotation_r	knee_angle_r	knee_angle_r_beta	ankle_angle_r	subtalar_angle_r	mtp_angle_r	hip_flexion_l	hip_adduction_l	hip_rotation_l	knee_angle_l	knee_angle_l_beta	ankle_angle_l	subtalar_angle_l	mtp_angle_l	lumbar_extension	lumbar_bending	lumbar_rotation	arm_flex_r	arm_add_r	arm_rot_r	elbow_flex_r	pro_sup_r	wrist_flex_r	wrist_dev_r	arm_flex_l	arm_add_l	arm_rot_l	elbow_flex_l	pro_sup_l	wrist_flex_l	wrist_dev_l
     31.79000000	     -4.47855646	     -4.93608472	      8.47665579	      1.02450305	      0.92323484	      0.48245977	      1.47688835	      2.68600268	    -22.06321286	     10.25326104	     10.25326104	     13.74036466	     -1.45605524	     -7.43531075	     27.57124323	     -8.11894079	     -3.84058830	     15.83051074	     15.83051074	      0.27114946	     -4.01561934	     -0.84061742	     -8.80480088	      6.24452153	      3.13009472	     33.16290041	    -17.12949524	     -7.01026324	     89.41086876	     44.54226940	      0.00000000	      0.00000000	     -0.46648731	     -9.62586272	     -7.15012959	     33.33316130	     46.33835269	      0.00000000	      0.00000000
     31.80371429	     -4.50576197	     -5.05351510	      8.29751356	      1.02598770	      0.92237033	      0.48070290	      1.10259866	      2.70125287	    -21.89373410	     10.42714746	     10.42714746	     14.12337059	     -1.33625426	     -7.10544479	     27.38697806	     -8.15550346	     -3.54800165	     16.61257669	     16.61257669	     -0.15124148	     -5.31977486	     -1.35369793	     -8.64009511	      6.17466472	      3.28857330	     32.76706223	    -16.88803679	     -7.03669495	     88.45181348	     44.58733063	      0.00000000	      0.00000000	     -0.17965225	     -9.82198848	     -7.14478829	     33.75202634	     46.33365258	      0.00000000	      0.00000000
     31.81742857	     -4.49737785	     -5.05017188	      8.09610877	      1.02749891	      0.92183964	      0.47878074	      0.71700954	      2.55926168	    -21.68718599	     10.68352002	     10.68352002	     14.49042643	     -1.27964007	     -6.81172634	     27.08180490	     -8.10018342	     -3.37165033	     17.26260458	     17.26260458	     -0.39596717	     -6.34145552	     -1.70607332	     -8.58561887	      5.98399938	      3.36596224	     32.29356205	    -16.48636226	     -7.02997878	     87.53997981	     44.62625009	      0.00000000	      0.00000000	      0.08825958	    -10.08574343	     -7.15758954	     34.10106180	     46.33272360	      0.00000000	      0.00000000
     31.83114286	     -4.44308001	     -4.97326054	      7.90142784	      1.02902204	      0.92163295	      0.47669498	      0.25020460	      2.33715490	    -21.46272718	     10.88240468	     10.88240468	     14.65244518	     -1.27175549	     -6.74570254	     26.74087836	     -8.01636744	     -3.36803783	     17.90987062	     17.90987062	     -0.29436023	     -6.94691327	     -1.86455228	     -8.61957824	      5.72299914	      3.38846329	     31.48909493	    -16.05993295	     -6.86158089	     87.00504858	     44.63732674	      0.00000000	      0.00000000	      0.44915777	    -10.32514639	     -7.18453107	     34.29285359	     46.34029357	      0.00000000	      0.00000000
     31.84485714	     -4.36550546	     -4.88513434	      7.73511831	      1.03047605	      0.92163444	      0.47433000	     -0.18719903	      2.06735588	    -21.23930111	     11.17821899	     11.17821899	     14.77611015	     -1.33168616	     -6.65468504	     26.48847143	     -7.88560561	     -3.18944540	     18.70612451	     18.70612451	     -0.02356660	     -7.71412262	     -2.04301820	     -8.69800053	      5.47567862	      3.42422096	     30.59694080	    -15.73440098	     -6.74832568	     86.23205479	     44.65734405	      0.00000000	      0.00000000	      0.87995810	    -10.53433796	     -7.20589751	     34.51860702	     46.34826083	      0.00000000	      0.00000000
